<svg xmlns="http://www.w3.org/2000/svg" width="32" height="32" viewBox="0 0 32 32">
    <g fill="none" fill-rule="nonzero">
        <path fill="#FCB23B" d="M31.714 16.623a.895.895 0 0 0 0-1.246l-2.46-2.46c-.235-.235-.302-.538-.235-.841l.91-3.402c.134-.472-.169-.943-.607-1.078l-3.368-.91a.797.797 0 0 1-.607-.606l-.943-3.402a.865.865 0 0 0-1.078-.606l-3.368.91c-.303.066-.64 0-.842-.237L16.623.253a.895.895 0 0 0-1.246 0l-2.46 2.459c-.235.235-.538.303-.841.235l-3.402-.91c-.472-.134-.943.17-1.078.607l-.91 3.369a.797.797 0 0 1-.606.606l-3.402.943a.865.865 0 0 0-.606 1.078l.91 3.368c.066.304 0 .64-.237.843L.253 15.343a.895.895 0 0 0 0 1.246l2.459 2.46a.88.88 0 0 1 .235.842l-.91 3.402c-.134.471.17.943.607 1.078l3.369.909a.797.797 0 0 1 .606.606l.943 3.402a.865.865 0 0 0 1.078.607l3.368-.91c.304-.067.64 0 .843.236l2.492 2.493a.895.895 0 0 0 1.246 0l2.46-2.46c.235-.235.538-.302.842-.235l3.402.91c.471.134.943-.169 1.078-.607l.909-3.368a.797.797 0 0 1 .606-.607l3.402-.943a.865.865 0 0 0 .607-1.078l-.91-3.368c-.067-.303 0-.64.236-.842l2.493-2.493z"/>
        <path fill="#FFE9C5" d="M15.983 24.741c-4.817 0-8.758-3.907-8.758-8.758 0-4.817 3.908-8.758 8.758-8.758a8.74 8.74 0 0 1 8.758 8.758c0 4.817-3.941 8.758-8.758 8.758z"/>
        <path fill="#FCB23B" d="M20.227 11.739a1.057 1.057 0 0 0-1.482 0l-7.006 7.006a1.057 1.057 0 0 0 0 1.482c.202.202.472.304.741.304.27 0 .539-.102.741-.304l7.04-7.04a.989.989 0 0 0-.034-1.448z"/>
        <circle cx="12.716" cy="12.716" r="1.718" fill="#FCB23B"/>
        <circle cx="19.251" cy="19.251" r="1.718" fill="#FCB23B"/>
    </g>
</svg>
