<svg width="190" height="76" viewBox="0 0 190 76" fill="none" xmlns="http://www.w3.org/2000/svg">
    <g clip-path="url(#eoomeyaoda)">
        <path d="M179.317 5.108c0-.94.207-1.775.625-2.503.412-.836 1.037-1.356 1.873-1.878.832-.417 1.662-.727 2.499-.727.934 0 1.764.207 2.498.624.831.418 1.352 1.042 1.873 1.879.413.83.728 1.666.728 2.497 0 .83-.212 1.671-.625 2.502-.417.733-1.042 1.357-1.873 1.879-.837.417-1.667.727-2.601.727-.935 0-1.77-.207-2.607-.727-.831-.418-1.352-1.042-1.873-1.879-.31-.727-.517-1.563-.517-2.393v-.001zm.728 0c0 .727.206 1.454.624 2.188.413.727.934 1.248 1.559 1.563.624.418 1.352.624 2.188.624.728 0 1.455-.206 2.184-.624.727-.418 1.146-.939 1.564-1.563.412-.625.624-1.357.624-2.188 0-.732-.212-1.46-.624-2.193A5.64 5.64 0 0 0 186.6 1.35c-.625-.412-1.352-.624-2.184-.624-.727 0-1.461.212-2.188.624a5.544 5.544 0 0 0-1.559 1.564c-.418.63-.624 1.357-.624 2.193z" fill="#0F6E3A"/>
        <path d="M182.577 7.39V2.468h1.775c.27 0 .504.02.702.06.197.04.375.11.535.208.16.097.281.237.362.419.081.18.122.405.122.67 0 .267-.083.523-.247.735-.165.213-.413.356-.744.43.295.165.512.421.652.771l.666 1.626h-.93l-.564-1.464c-.092-.24-.193-.404-.301-.49-.108-.085-.271-.128-.49-.128h-.679v2.082h-.859v.001zm.848-2.809h.822c.613 0 .919-.237.919-.713 0-.259-.065-.435-.193-.526-.128-.091-.34-.137-.635-.137h-.913v1.376z" fill="#11703B"/>
        <path d="M164.025 48.072c-.832 0-1.455.103-1.977.207-.522.103-1.042.315-1.352.624a2.886 2.886 0 0 0-.939 1.254 16.053 16.053 0 0 0-.625 1.976l-.412 1.981-2.607 11.882c0 .103 0 .207-.103.315-.206.727-.521 1.249-.831 1.563-.418.31-1.042.413-1.77.413h-3.225c-.103 0-.315 0-.522-.103-.522-.207-.934-.624-1.249-1.352a2 2 0 0 1-.207-.836l-1.042-7.089c-.103-.624-.103-1.146 0-1.454 0 0 0-.108.103-.108.102-.103.102-.207.212-.31l.102-.102s.103 0 .103-.109c.31-.206.728-.206 1.352-.206h6.766l.418-2.29h-11.034c-1.874 0-2.601.933-2.291 2.914l1.461 9.798c0 .418.103.727.309 1.146.315.836.832 1.46 1.455 1.775.625.31 1.461.413 2.292.413h6.972c.836 0 1.461-.103 1.976-.207.522-.103 1.042-.315 1.357-.624.413-.315.728-.733.935-1.254.206-.522.417-1.146.624-1.976l.315-1.671 2.601-12.507c.207-.727.522-1.248.831-1.454.418-.315 1.043-.418 1.77-.418h2.601c.207 0 .418 0 .728.103.212.103.521.207.727.315l.522-2.715-6.349.108.003-.002zM151.014 74.019a1.978 1.978 0 1 1-3.953 0 1.977 1.977 0 0 1 3.953 0zM157.677 74.019a1.978 1.978 0 1 1-3.955.007 1.978 1.978 0 0 1 3.955-.007z" fill="#EE4523"/>
        <path d="M173.599 54.429 171.1 66.414c-.102.624-.412 1.042-.831 1.46-.418.413-.934.522-1.559.522-.521 0-.939-.108-1.249-.418-.309-.31-.521-.624-.521-1.146v-.212c0-.068.034-.137.102-.206l2.499-11.985h-4.578v1.873l-2.498 11.882c0 .103 0 .212-.108.315v.31c0 .52.212.938.521 1.253.418.31.94.418 1.564.418h3.748c.521 0 1.558-.212 2.183-1.151l-.412 1.98c-.213.94-.522 1.564-.94 1.879-.418.31-1.042.418-1.77.418h-3.953c-.206 0-.521 0-.727-.109-.212-.102-.522-.206-.728-.31l-.521 2.71h7.803a9.53 9.53 0 0 0 1.977-.208c.521-.108 1.042-.314 1.357-.63.412-.309.727-.726.934-1.248.207-.521.418-1.146.625-1.98l3.643-17.403h-4.062zM102.098 70.582l3.019-14.07v-.938c0-.315 0-.728-.103-1.042h4.475l-.207 1.878 1.559-1.254c.315-.207.522-.418.831-.522.212-.102.522-.206.837-.206h1.661c.522 0 .837.103 1.043.31.207.211.315.417.315.629l-2.813 3.127v-.212c0-.94-.522-1.46-1.559-1.46-.522 0-1.042.211-1.461.52a2.346 2.346 0 0 0-.832 1.357l-2.498 11.67h-4.268v.213h.001zM118.232 70.582c-1.667 0-2.916-.417-3.644-1.356-.727-.94-1.146-2.188-1.146-3.752 0-.939.103-1.98.418-3.332.309-1.564.727-2.818 1.249-3.86a9.736 9.736 0 0 1 1.77-2.502c.727-.624 1.454-1.042 2.394-1.249.934-.206 1.976-.417 3.123-.417 1.661 0 2.807.315 3.638 1.042.836.732 1.249 1.878 1.249 3.544 0 .94-.103 2.084-.413 3.442h-8.742c-.212.83-.315 1.563-.418 2.188-.103.624-.103 1.248-.103 1.769 0 .939.207 1.666.727 2.188.418.417 1.352.732 2.601.732.625 0 1.77-.103 3.334-.315v1.878h-6.038.001zm4.892-10.525c.103-.418.103-.733.207-1.151.103-.413.103-.727.103-1.042 0-.624-.103-1.146-.413-1.563-.212-.413-.732-.625-1.357-.625-.727 0-1.352.418-1.874 1.146-.516.732-.934 1.878-1.14 3.235h4.475-.001zM141.337 58.18c.103-.418.103-.727.103-1.042 0-1.769-1.146-2.605-3.433-2.605h-6.869v2.4a5.24 5.24 0 0 1 2.08-.418h1.77c.831 0 1.351.103 1.661.417.315.207.522.625.522 1.146v.31c0 .108 0 .212-.103.315l-.207.939a36.47 36.47 0 0 0-3.643.206 7.935 7.935 0 0 0-2.916.837c-.832.417-1.559 1.042-2.184 1.769-.624.732-1.042 1.775-1.249 2.92-.212 1.042-.315 1.981-.315 2.708 0 1.042.315 1.77.837 2.084.516.315 1.455.522 2.601.522h2.498s1.662.102 2.395-1.146l-.212 1.145h4.685c-.103-.206-.212-.417-.212-.624 0-.207-.103-.417-.103-.624 0-.207 0-.522.103-.94l2.189-10.318.002-.001zm-5.827 7.816c-.108.625-.418 1.146-.836 1.666-.413.522-1.037.733-1.977.733-.418 0-.831-.108-1.146-.315-.31-.207-.413-.624-.413-1.146v-.315c0-.102 0-.206.103-.31l.413-2.083c.212-1.151.836-1.981 1.667-2.4.939-.417 1.976-.624 3.225-.624l-1.037 4.793.001.001zM99.807 67.142h-24.04l.832 1.981H99.29l.517-1.98h-.001zM100.953 61.725H73.476l.837 1.98h26.118l.522-1.98zM102.098 56.302H71.293l.83 1.98h29.557c-.102.104.315-1.768.418-1.98z" fill="#EE4523"/>
        <path d="M31.95 14.304c-2.6-3.23-6.348-5.21-11.033-5.732-.934-.103-1.874-.212-3.123-.212h-1.977l-4.892.212H2.808L0 8.469l.31 2.393v3.442l.212 5.315V37.13L.31 43.904 0 46.82l2.91-.206h3.123l4.48.206 6.658-.206h.624c2.498-.103 4.892-.625 6.972-1.667 2.291-1.041 4.268-2.605 6.039-4.586 3.328-3.86 4.995-8.55 4.995-14.07.103-4.69-1.249-8.652-3.85-11.985zM17.899 43.068a19.18 19.18 0 0 1-4.37.522H8.64v-7.502l-.108-8.235.108-8.234v-8.023h4.475c1.558 0 3.225.103 4.784.521 5.104 1.249 9.264 5 9.264 14.483 0 9.482-3.432 14.905-9.264 16.468h-.001zM111.048 8.572c-1.455.31-3.226.31-4.785.207-4.37 8.755-8.536 17.511-12.804 26.157L80.97 8.675a35.552 35.552 0 0 1-4.68 0c-.315 1.98-.522 3.962-.837 5.938l-.624 5.32-1.662 12.506-1.146 8.23-.624 3.337-.522 2.503c1.564-.212 3.225-.108 4.892 0 .728-8.446 1.559-16.784 2.395-25.225l12.07 25.328h2.08l1.77-3.86 5.1-10.313 5.309-11.155 2.499 25.43c2.916-.314 5.826-.314 8.742-.102-1.667-12.719-3.122-25.328-4.685-38.041h.001zM165.171 19.412c-6.452.103-6.972 3.018-9.161 7.296l-.103-6.672a45.348 45.348 0 0 1-7.493 0c1.146 5.52.315 20.53 0 26.577h8.118c-.31-4.381-.418-8.755-.418-13.028V31.5c.837-6.357 8.33-4.169 8.226-4.066l.625-.522c-.212-2.502-.108-5.005.207-7.5h-.001zM142.586 44.528c-1.873-.625-1.352-2.503-1.352-4.17v-11.36c0-4.271-1.667-8.023-6.141-9.277-1.564-.417-3.226-.624-4.686-.521-3.329.315-6.451 1.775-9.47 3.647l.624 3.442.522-.103c2.813-2.817 5.935-3.235 8.221-2.503 4.062 1.25 5.724 5.836 0 7.817a35.99 35.99 0 0 1-2.704.624c-4.268.624-8.64 2.812-8.64 7.816 0 3.333 1.667 6.253 5.414 7.192 2.08.521 4.16.418 5.93-.418 1.352-.624 2.498-1.563 3.541-3.023.309-.417 1.976 6.986 10.409 2.503l.207-1.357c-.625 0-1.352-.103-1.874-.31h-.001zm-12.283-.94h-.31c-2.188 0-3.437-1.563-3.333-4.586.108-2.915 1.873-4.272 3.747-5.108 1.357-.624 2.813-.934 3.747-1.454-.412 5.623.315 10.835-3.85 11.15l-.001-.002zM171.833 20.454l-.212-6.884 7.911-3.539-.103 2.188-.212 2.708v5.63c1.564 0 3.231.102 4.79-.418a7.436 7.436 0 0 0 0 3.023l-5.099-.103v16.258c0 1.98.103 3.436.624 4.169 1.043 1.46 3.123 1.46 4.893.624l-.212 2.29-1.14.418c-4.583 1.666-10.725 1.146-11.349-4.478-.103-.63-.103-1.46-.103-2.193V23.059c-1.249.103-2.394.103-3.643.103.212-.94.212-1.878 0-2.92l3.855.212zM35.383 44.947H66.71l.624 1.563H34.76l.624-1.563zm1.667-3.86h28.102l.625 1.357h-29.35l.624-1.357zm1.564-3.75h24.974l.522 1.248H38.094l.521-1.249zm1.455-3.545h21.856l.413 1.145H39.65l.418-1.145h.001zm1.455-3.545h18.94l.418.94H41.11l.413-.94zm1.461-3.332h16.128l.418.836h-16.86l.314-.836zm1.352-3.23H57.76l.315.727H44.022l.315-.727zm1.352-3.127h10.72l.309.624H45.374l.315-.624zM47.46 7.84c.412-.31 1.037-.207 1.455.212.31.417.206 1.041-.207 1.46-.418.31-1.042.207-1.461-.212-.31-.417-.207-1.042.212-1.46zm7.178 0c-.417-.31-1.042-.207-1.454.212-.315.417-.212 1.041.206 1.46.418.31 1.043.207 1.455-.212.315-.417.212-1.042-.206-1.46zm-3.54-2.709c-1.352 7.399-.413 5.945-7.282 5.315 6.767 3.235 6.142 1.671 2.808 8.55 2.916-2.4 4.371-4.381 4.475-6.569.108 2.188 1.564 4.066 4.48 6.569-3.334-6.987-3.958-5.423 2.808-8.55-6.87.63-5.93 1.981-7.287-5.315h-.002z" fill="#11703B"/>
    </g>
    <defs>
        <clipPath id="eoomeyaoda">
            <path fill="#fff" d="M0 0h189.412v76H0z"/>
        </clipPath>
    </defs>
</svg>
