<svg xmlns="http://www.w3.org/2000/svg" width="30" height="31" viewBox="0 0 30 31">
    <g fill="none">
        <path fill="#FFB100" d="M25.676 13.957L25.676 30.999 4.309 30.999 4.309 13.957 15 3.362z"/>
        <path fill="#DD9D57" d="M3.276 29.006H26.71V31H3.276z"/>
        <path fill="#FF8006" d="M29.223 15.524l-1.883 1.882c-.038.038-.088.059-.141.059-.054 0-.104-.021-.142-.059L15.142 5.49c-.038-.038-.089-.059-.142-.059-.053 0-.104.021-.141.059L2.942 17.406c-.037.038-.088.059-.141.059-.053 0-.104-.021-.141-.059L.778 15.524c-.078-.078-.078-.205 0-.283L12.835 3.184l2.024-2.041c.037-.038.088-.06.141-.06.053 0 .104.021.142.059l2.042 2.042L29.223 15.24c.078.078.078.205 0 .283z"/>
        <path fill="#333" d="M27.2 17.765c-.133 0-.26-.053-.354-.147L15 5.773 3.154 17.617c-.093.094-.22.147-.353.147-.133 0-.26-.053-.353-.147L.566 15.736c-.195-.195-.195-.511 0-.707L14.646.932c.092-.096.22-.15.353-.149h.002c.133 0 .26.053.353.147l14.081 14.1c.195.195.195.511 0 .707l-1.882 1.882c-.094.094-.221.146-.354.146zM15 5.132c.133 0 .26.052.354.146l11.845 11.845 1.74-1.74L15.002 1.425l-1.953 1.97L1.06 15.383l1.74 1.74L14.647 5.278c.093-.094.22-.147.353-.146z"/>
        <path fill="#FFF" d="M7.493 16.541H13.518V22.566000000000003H7.493zM16.702 16.541H22.493000000000002V29.006H16.702z"/>
        <path fill="#333" d="M25.406 29.306H4.553c-.166 0-.3-.135-.3-.3 0-.166.134-.3.3-.3h20.853c.165 0 .3.134.3.3 0 .165-.135.3-.3.3z"/>
    </g>
</svg>
