<svg xmlns="http://www.w3.org/2000/svg" width="304" height="500" viewBox="0 0 304 500">
    <defs>
        <linearGradient id="prefix__a" x1="50%" x2="50%" y1="-131.259%" y2="103.76%">
            <stop offset="13%" stop-color="#FDCB6B"/>
            <stop offset="22.7%" stop-color="#FDCB6B" stop-opacity=".856"/>
            <stop offset="44.31%" stop-color="#FDCB6B" stop-opacity=".555"/>
            <stop offset="63.61%" stop-color="#FDCB6B" stop-opacity=".317"/>
            <stop offset="79.91%" stop-color="#FDCB6B" stop-opacity=".145"/>
            <stop offset="92.55%" stop-color="#FDCB6B" stop-opacity=".039"/>
            <stop offset="100%" stop-color="#FDCB6B" stop-opacity="0"/>
        </linearGradient>
    </defs>
    <g fill="none" fill-rule="evenodd">
        <path d="M0 0H304V500H0z"/>
        <path fill="#87D19D" fill-rule="nonzero" d="M52.2 454.604h5.007c0 .644-.522 1.166-1.165 1.166h-2.677c-.309 0-.605-.123-.824-.342-.218-.218-.341-.514-.341-.823v-.001zM99.637 455.77H96.96c-.644 0-1.165-.522-1.165-1.165v-.001h5.007c0 .31-.123.606-.342.824-.218.219-.514.342-.823.342zM90.238 434.953L90.238 442.035 62.771 442.035 62.771 434.953 62.847 434.953 63.049 434.847 63.317 434.704 63.384 434.675 63.892 434.406 64.333 434.636 64.937 434.953 65.1 434.953 66.144 434.406 67.189 434.953 67.352 434.953 68.396 434.406 69.441 434.953 69.604 434.953 70.649 434.406 71.693 434.953 71.866 434.953 72.901 434.406 73.946 434.953 74.118 434.953 75.163 434.406 76.198 434.953 76.37 434.953 76.504 434.886 76.629 434.953 76.802 434.953 77.846 434.406 78.891 434.953 79.054 434.953 80.098 434.406 81.143 434.953 81.306 434.953 82.351 434.406 83.395 434.953 83.568 434.953 84.603 434.406 85.648 434.953 85.82 434.953 86.855 434.406 87.9 434.953 88.072 434.953 88.667 434.636 89.107 434.406 89.615 434.675 89.692 434.704 89.951 434.847 90.152 434.953zM63.304 414.815s2.888-6.366 6.265-4.427c.315-1.417 1.619-2.39 3.066-2.286 1.833.108 3.744-.648 3.866-1.888v-.033H63.304v8.634zM76.501 406.181c.122 1.24 2.033 1.996 3.866 1.887 1.447-.102 2.751.87 3.066 2.286 3.377-1.938 6.265 4.428 6.265 4.428v-8.6H76.501z"/>
        <path fill="#00A587" fill-rule="nonzero" d="M98.03 400.508c0 .512-.205 1.004-.568 1.365-.364.361-.856.563-1.368.562v2.213c.002.844-.68 1.53-1.524 1.534H58.43c-.845-.004-1.527-.69-1.525-1.534v-2.214c-1.064 0-1.926-.862-1.926-1.926H98.03zM62.766 434.443s-5.465-.619-5.768 4.054c-.302 4.674.202 10.49-1.513 11.162-1.715.673-3.463-.672-3.9.101-.437.774-1.748 4.102-.605 4.64 1.143.539 6.222.234 6.222.234 2.398-1.987 3.89-4.861 4.133-7.966.47-5.312 2.949-4.626 2.949-4.626l.055-6.014v-1.32l-1.573-.265z"/>
        <path fill="#00A587" fill-rule="nonzero" d="M63.442 433.76c.625-8.864.612-17.761-.039-26.624.52-.011.936-.435.937-.955h-4.315c0 .53.43.96.96.96h.028c-.65 8.857-.663 17.75-.039 26.609-.525.005-.949.432-.949.958h1.015c.014.189.024.378.04.567h2.258c.014-.189.024-.378.039-.567h.963c-.003-.504-.396-.918-.898-.947zM90.236 434.434s5.465-.62 5.768 4.054c.302 4.673-.202 10.49 1.513 11.162 1.715.672 3.463-.672 3.9.1.437.774 1.748 4.103.605 4.64-1.143.54-6.222.235-6.222.235-2.398-1.988-3.89-4.862-4.133-7.967-.47-5.312-3.005-4.625-3.005-4.625v-5.717l.018-1.789 1.556-.093z"/>
        <path fill="#00A587" fill-rule="nonzero" d="M92.028 433.75c.624-8.86.611-17.752-.04-26.61h.03c.53 0 .96-.43.96-.96h-4.316c.001.52.417.944.937.956-.651 8.862-.664 17.76-.039 26.624-.502.03-.895.444-.898.947h.963c.015.19.025.379.04.568h2.258c.015-.19.025-.378.039-.568h1.015c0-.525-.424-.952-.949-.957z"/>
        <path fill="#C69C6D" fill-rule="nonzero" d="M87.249 373.002c0-4.721-3.216-8.548-7.183-8.548h-7.13c-3.967 0-7.183 3.827-7.183 8.548v4.783H87.25v-4.783z"/>
        <path fill="#F9F9F9" fill-rule="nonzero" d="M87.249 394.182v-16.397H65.753v16.397c-.053.674.444 1.265 1.117 1.329h19.262c.673-.064 1.17-.655 1.117-1.329z"/>
        <path fill="#957552" fill-rule="nonzero" d="M77.426 366.223h6.462c.297.011.595-.008.888-.057.53-.29.825-.879.74-1.478-.08-.71-.65-1.263-1.362-1.32H68.845c-.712.056-1.283.61-1.362 1.32-.046.628.288 1.221.847 1.51.258.038.52.047.781.025h8.315z"/>
        <path fill="#007F6A" fill-rule="nonzero" d="M108.994 399.579c.002.247-.096.484-.27.659-.175.175-.413.272-.66.27H44.916c-.514 0-.93-.416-.93-.93 0-2.313 1.875-4.188 4.188-4.188h56.632c2.313 0 4.188 1.876 4.188 4.189z"/>
        <path fill="#00A587" fill-rule="nonzero" d="M64.284 438.824H88.66300000000001V442.04200000000003H64.284z"/>
        <path fill="#000" fill-rule="nonzero" d="M240.911 0H241.911V111.823H240.911z"/>
        <path fill="#007F6A" fill-rule="nonzero" d="M244.993 131.367h-7.524c1.312-.81 1.738-2.518.962-3.85-1.312-2.448-2.74-3.148-.276-9.271 1.5-4.987.684-6.65.684-6.65s-.582-4.373 2.392-4.023c2.974-.35 2.391 4.024 2.391 4.024s-.817 1.662.685 6.649c2.465 6.123 1.036 6.823-.278 9.272-.776 1.332-.348 3.04.964 3.849z"/>
        <path fill="#00A587" fill-rule="nonzero" d="M233.275 131.367h15.763c10.09 0 18.271 8.18 18.271 18.272h-52.305c0-10.092 8.18-18.272 18.271-18.272z"/>
        <path fill="url(#prefix__a)" fill-rule="nonzero" d="M215.004 149.639L195.316 187.876 285.18 187.876 267.309 149.639z" opacity=".5"/>
        <path fill="#499E8E" fill-rule="nonzero" d="M212.2 317.913s9.439 2.711 16.167 16.267l-1.808.904s-5.02-7.933-15.564-16.368l1.205-.803z"/>
        <path fill="#EB996E" fill-rule="nonzero" d="M116.607 285.279c-3.715 1.104-6.828-.904-8.937-3.816-3.383-4.557-5.902-9.696-7.43-15.163-.904-3.414-1.808-6.928-2.51-10.342-.1-.2-.1-.402-.201-.603-.199-.358-.434-.695-.703-1.004-.377-.394-.78-.763-1.205-1.104-1.305-1.205-2.812-2.31-3.615-3.916-.502-1.004-1.305-2.912-1.707-4.017-.28-.584-.515-1.188-.703-1.807l-.301-.904c-.1-.301-.151-.617-.15-.934-.03-.274.11-.54.351-.673.082-.05.175-.081.271-.09.008-.007.02-.01.03-.01h.492c.125.031.243.082.352.151.463.446.775 1.025.893 1.657.874 2.63 3.686 3.313 4.69 5.522.8.449 1.46 1.109 1.908 1.908l.09.12c.663 1.209 1.205 2.48 1.616 3.796l11.95 19.078c.816 1.327 2.466 1.877 3.916 1.306 4.256-2.376 8.29-5.132 12.05-8.234 4.016-3.113 7.731-6.527 11.748-9.64.803-.603 8.364-6.175 9.67-6.477 11.848 16.167-24.23 32.585-32.565 35.196z"/>
        <path fill="#EB996E" fill-rule="nonzero" d="M89.797 240.896c-.011-.001-.022.002-.03.01v-.01h.03z"/>
        <path fill="#E28C71" fill-rule="nonzero" d="M149.17 250.084c-1.304.301-8.866 5.874-9.67 6.476-1.204.904-2.41 1.908-3.614 2.912-5.322 7.33-3.514 17.874-12.953 21.087-7.13 3.515-13.054-2.41-18.878-7.13-.513-.377-1.057-.711-1.627-.997 1.355 3.18 3.093 6.183 5.176 8.941 2.25 3.124 5.287 5.01 9.003 3.906 8.234-2.46 44.413-19.029 32.564-35.195z"/>
        <path fill="#29ABE2" fill-rule="nonzero" d="M161.592 355.467L160.889 445.94 160.889 447.948 155.467 447.948 144.723 367.015 143.216 355.467z"/>
        <path fill="#28A3BF" fill-rule="nonzero" d="M160.89 445.94l.702-90.472h-18.376l1.507 11.547c3.414 8.435 8.434 16.568 10.342 25.003 2.812 17.371-.401 36.45 5.824 53.922z"/>
        <path fill="#EB996E" fill-rule="nonzero" d="M160.89 447.948v6.426h-19.883c-.214-.014-.393-.167-.44-.376-.046-.21.052-.424.24-.527l14.66-5.523h5.422z"/>
        <path fill="#253239" fill-rule="nonzero" d="M162.094 454.977c-.024.322-.28.578-.602.602h-21.489c-.217.003-.419-.111-.528-.299-.11-.187-.11-.42 0-.607s.311-.301.528-.299h21.489c.145-.014.29.03.404.124.113.093.184.227.198.373.003.035.003.07 0 .106z"/>
        <path fill="#253239" fill-rule="nonzero" d="M146.932 451.261v3.214h-2.912v-2.109c-.001-.132.078-.252.2-.301l2.51-1.004c.108.009.192.094.202.2zM154.663 448.35v6.125h-1.707v-5.623c-.02-.137.067-.267.201-.301l1.205-.402c.211-.05.302 0 .302.201z"/>
        <path fill="#29ABE2" fill-rule="nonzero" d="M226.96 416.82l-.39 1.208-1.517 4.616-65.67-41.571-2.008-1.406c-1.41-.892-2.417-2.296-2.812-3.916-.464-1.854-.833-3.73-1.104-5.623l-2.41-17.07 2.71-5.422 2.3-2.19c1.81-1.756 4.003-3.07 6.407-3.835 2.008-.613 9.167-.1 9.167-.1.1 5.02-3.112 26.71-1.104 30.625.84 1.093 1.82 2.071 2.912 2.912l.2.201 51.693 40.196 1.627 1.375z"/>
        <path fill="#28A3BF" fill-rule="nonzero" d="M225.334 415.444l-51.669-40.205-.224-.191c-1.092-.841-2.071-1.82-2.912-2.912-2.008-3.916 1.205-25.575 1.104-30.596 0 0-7.2-.512-9.167.1-2.404.766-4.597 2.079-6.407 3.836l-2.3 2.189c4.52 7.029 3.817 16.166 6.628 24.2 2.51 7.33 9.941 10.543 16.87 13.355 4.217 1.807 9.037 2.209 12.551 5.422 1.888 1.446 3.776 2.772 5.181 4.017 4.419 4.418 8.776 7.872 13.295 12.39 4.676 3.861 9.721 7.251 15.062 10.122.95.624 2.065.946 3.2.925l.415-1.276-1.627-1.376z"/>
        <path fill="#EB996E" fill-rule="nonzero" d="M226.96 416.82l6.628 2.31-7.13 20.384c-.082.221-.304.36-.54.336-.235-.024-.425-.203-.463-.436l-.412-16.78 1.918-5.814z"/>
        <path fill="#253239" fill-rule="nonzero" d="M234.693 418.025c.401.1.502.502.401.903l-7.731 22.091c-.1.402-.502.502-.904.402-.402-.1-.502-.502-.402-.904l7.732-22.09c.19-.309.548-.468.904-.402z"/>
        <path fill="#253239" fill-rule="nonzero" d="M225.354 432.283l3.214 1.105-1.005 3.012-2.108-.703c-.1 0-.201-.2-.201-.301l-.1-2.912c0-.2.1-.2.2-.2zM225.154 423.246l6.225 2.21-.602 1.706-5.623-2.008c-.1 0-.201-.2-.201-.301v-1.305c0-.322.13-.322.2-.302z"/>
        <path fill="#28A3BF" fill-rule="nonzero" d="M157.535 430.888c-.2-1.697-.361-3.404-.482-5.111.13 1.707.281 3.414.482 5.11z"/>
        <path fill="#6FA176" fill-rule="nonzero" d="M240.818 416.92c.257-.133.494-.302.703-.502-.201.2-.502.301-.703.502z"/>
        <path fill="#FDCB6B" fill-rule="nonzero" d="M192.72 351.05c-5.242 4.86-20.412 11.321-20.412 11.321l-.092.035c-16.518 5.864-31.33 1.858-41.17-2.852 6.125-16.87 12.552-42.475 14.66-51.713 1.607-6.828 3.816-23.597 2.008-30.525-.702-2.912-2.31-5.623-3.414-8.334-.903-2.31-2.108-4.017-.602-7.632l2.912-8.133c.554-1.965 2.216-3.418 4.237-3.706 0 0 26.278-.682 24.33 11.809-.13.823-.28 1.687-.431 2.59-.1.623-.211 1.256-.342 1.918-.13.663-.23 1.296-.341 2.009-.181 1.004-.372 2.108-.563 3.223-.16 1.004-.31 1.938-.462 3.012-.022.308-.07.614-.14.914-.08.532-.15 1.085-.231 1.637-.502 3.816-.914 8.033-1.064 12.622-.012.653.012 1.307.07 1.958.07.663.08 1.335.14 2.008.06.673.13 1.366.221 2.069.019.338.066.674.14 1.004.08.703.191 1.416.322 2.139.13.723.231 1.435.382 2.169 3.645 19.309 14.189 42.143 19.842 50.457z"/>
        <path fill="#FCB960" fill-rule="nonzero" d="M192.72 351.05c-5.242 4.86-20.412 11.321-20.412 11.321l-.092.035c-5.463-21.72-9.82-63.37-9.82-87.199-.804-6.928-9.44-8.334-10.544-13.355-1.004-4.217-2.61-8.525-1.004-12.34 24.47-4.318 26.348-.714 24.37 11.798-.12.823-.271 1.687-.432 2.59-.1.623-.21 1.256-.341 1.918-.13.663-.221 1.286-.341 2.009-.181 1.004-.372 2.108-.563 3.223-.15 1.004-.311 1.948-.462 3.012-.023.308-.07.614-.14.914-.07.532-.15 1.085-.231 1.637-.502 3.816-.914 8.033-1.065 12.622-.011.653.012 1.307.07 1.958.07.663.08 1.335.141 2.008.06.673.14 1.376.22 2.069.02.338.067.674.141 1.004.09.703.201 1.416.322 2.139.12.723.25 1.445.381 2.168 3.605 19.32 14.149 42.154 19.802 50.468z"/>
        <path fill="#253239" fill-rule="nonzero" d="M157.977 247.523s-1.607-8.334 2.711-25.404c0 0 5.423-15.363-4.016-16.066-11.447-.603-16.267 17.07-20.484 36.249 0 0 17.572 5.523 21.79 5.221z"/>
        <path fill="#FDCB6B" fill-rule="nonzero" d="M150.647 234.67c-.391 2.015-2.282 3.379-4.318 3.113-.814-.097-1.565-.49-2.109-1.105-.828-.808-1.203-1.973-1.004-3.113.392-2.015 2.283-3.378 4.318-3.112.59.085 1.144.328 1.607.703 1.047.854 1.61 2.167 1.506 3.514z"/>
        <path fill="#FDAD52" fill-rule="nonzero" d="M149.14 231.156c-1.807 1.406-2.007 6.225-4.92 5.523.544.614 1.295 1.007 2.11 1.104 2.035.266 3.926-1.098 4.317-3.113.104-1.347-.459-2.66-1.506-3.514z"/>
        <path fill="#000" fill-rule="nonzero" d="M167.617 209.165c.1.201 10.945 6.628-3.615 29.02-.703-1.306-.1-4.72-.1-4.72l.803-4.418V215.19l2.912-6.025z"/>
        <path fill="#EB996E" fill-rule="nonzero" d="M161.893 231.859l-3.715 3.012-2.31 11.849c-.401 2.008-1.305 7.43.502 7.33 1.005 0 2.51-.904 3.917-1.908 1.273-.802 2.452-1.745 3.514-2.811.093-.156.161-.325.2-.502l-2.108-16.97z"/>
        <path fill="#B56F5D" fill-rule="nonzero" d="M156.123 245.415l.333-1.707 6.642-2.912c-.098.458-.267.899-.502 1.305-1.205 3.414-6.473 3.314-6.473 3.314z"/>
        <path fill="#EB996E" fill-rule="nonzero" d="M146.831 229.248c0-6.527 2.711-14.76 9.238-14.76 6.527 0 11.447 9.74 10.343 18.274-1.908 7.933-4.318 11.146-10.845 11.146-8.133-1.305-8.736-8.233-8.736-14.66z"/>
        <path fill="#FFF" fill-rule="nonzero" d="M152.957 227.14c-.347 1.42-1.48 2.515-2.912 2.81-.232.05-.467.084-.703.1-.405.018-.81-.016-1.205-.1-.993-.243-1.85-.871-2.38-1.746-.529-.874-.69-1.924-.446-2.917l.014-.055c.456-1.565 1.797-2.71 3.414-2.912.47-.017.942.016 1.406.1 2.068.507 3.333 2.595 2.826 4.663l-.014.056z"/>
        <path fill="#DFF" fill-rule="nonzero" d="M152.957 227.14c.258-.99.113-2.042-.404-2.924-.517-.883-1.363-1.524-2.352-1.782l-.056-.014c-.464-.083-.935-.117-1.406-.1 4.318 2.008.703 5.422 1.305 7.631 1.433-.296 2.567-1.39 2.912-2.812z"/>
        <path fill="#FFF" fill-rule="nonzero" d="M163.299 228.947c-.414 1.672-1.893 2.863-3.615 2.912h-.1c-1.958.036-3.636-1.391-3.917-3.329-.28-1.938.925-3.782 2.813-4.303.66-.15 1.347-.15 2.008 0 .993.244 1.849.872 2.379 1.747.53.875.69 1.924.447 2.917l-.015.056z"/>
        <path fill="#DFF" fill-rule="nonzero" d="M163.299 228.947c.538-2.06-.696-4.167-2.756-4.706l-.055-.014c-.661-.15-1.348-.15-2.009 0 3.113 1.707 1.908 4.92 1.105 7.632 1.76-.004 3.291-1.204 3.715-2.912z"/>
        <path fill="#000" fill-rule="nonzero" d="M164.821 226.359H165.821V229.727H164.821z" transform="rotate(-79.695 165.157 228.043)"/>
        <path fill="#000" fill-rule="nonzero" d="M155.654 226.251c-.083-.224-.224-.424-.408-.577-.582-.485-1.446-.407-1.931.175l-.516-.431c.467-.56 1.197-.828 1.916-.705.718.124 1.316.622 1.569 1.306l-.63.232z"/>
        <path fill="#000" fill-rule="nonzero" d="M149.14 230.287c-1.719 0-3.27-1.036-3.928-2.625-.658-1.59-.294-3.418.922-4.634 1.216-1.216 3.045-1.58 4.634-.922 1.589.658 2.625 2.209 2.625 3.929-.003 2.347-1.905 4.25-4.252 4.252zm0-7.832c-1.976 0-3.58 1.602-3.58 3.58 0 1.977 1.604 3.58 3.58 3.58 1.978 0 3.58-1.603 3.58-3.58-.001-1.977-1.603-3.578-3.58-3.58zM159.483 232.094c-2.348 0-4.251-1.903-4.251-4.252 0-2.348 1.903-4.252 4.251-4.252 2.349 0 4.252 1.904 4.252 4.252-.002 2.347-1.904 4.25-4.252 4.252zm0-7.832c-1.977 0-3.58 1.603-3.58 3.58s1.603 3.58 3.58 3.58c1.978 0 3.58-1.603 3.58-3.58-.002-1.976-1.603-3.577-3.58-3.58z"/>
        <path fill="#253239" fill-rule="nonzero" d="M157.274 206.053c-4.117-.201-7.13 3.213-8.635 6.727-1.034 2.589-1.578 5.347-1.607 8.134 4.117-.1 8.334-1.205 9.138-6.527-.1 5.523 5.924 10.142 11.346 11.045 8.536-15.463 3.816-17.773-10.242-19.38z"/>
        <path fill="#505959" fill-rule="nonzero" d="M148.338 219.81c-.104-1.28-.002-2.569.3-3.816.203-1.295.61-2.549 1.206-3.716.565-1.202 1.387-2.265 2.41-3.113 1.025-.826 2.298-1.285 3.615-1.305-1.162.357-2.227.975-3.113 1.807-.871.855-1.555 1.88-2.008 3.013-.566 1.084-1.004 2.23-1.306 3.414-.46 1.21-.83 2.451-1.105 3.715z"/>
        <path fill="#253239" fill-rule="nonzero" d="M161.09 247.322s-.904-1.907 4.117-13.254c2.41-5.322-.703-8.736-.502-12.05 0 0-4.418-15.162 1.004-14.36 14.259 2.21 7.631 27.916 14.259 38.258-.1 0-12.452 3.716-18.878 1.406z"/>
        <path fill="#EB996E" fill-rule="nonzero" d="M196.174 283.491c-.301-.401-.442-.723-.642-1.004-.21-.289-.444-.558-.703-.803-3.118-2.424-6.37-4.67-9.74-6.728-.803-.502-1.707-1.105-2.711-1.707-2.51-1.506-5.623-3.213-8.435-4.619-1.633-1.208-2.63-3.092-2.711-5.121-.603-5.824 2.771-13.586 2.771-13.586l.201.2 19.821 16.98c2.414 2.013 4.542 4.344 6.327 6.93 1.606 1.907 4.719 8.233 9.94 37.052l-2.309.904s-3.715-9.941-7.23-18.577c-1.34-3.377-2.862-6.678-4.559-9.89l-.02-.03z"/>
        <path fill="#E28C71" fill-rule="nonzero" d="M171.232 263.489c.081 2.03 1.078 3.912 2.71 5.121 2.812 1.406 5.925 3.113 8.435 4.619 1.005.603 1.908 1.205 2.712 1.707 3.36 2.11 6.573 4.331 9.708 6.744.266.242.51.509.727.796.2.301.41.694.71 1.096-2.41-9.238-17.672-13.054-25.002-20.083z"/>
        <path fill="#EB996E" fill-rule="nonzero" d="M214.51 321.126c.06.726-.079 1.455-.402 2.109-.598.305-1.242.51-1.907.602-.704.025-1.4-.149-2.009-.502-1.333-.561-2.058-2.01-1.707-3.414.201-.602 1.607-.602 1.808-.401.3-.402.903-.804.401-1.205-3.012-1.507-2.61-5.724-2.71-6.327l2.309-.903c.165.323.367.626.602.904.219.401.489.772.803 1.104 1.83 2.277 2.822 5.113 2.812 8.033z"/>
        <path fill="#FFF" fill-rule="nonzero" d="M151.049 236.277s6.426 1.205 9.338-1.205c0 0-1.105 5.724-5.623 5.422-4.017-.2-3.715-4.217-3.715-4.217z"/>
        <path fill="#FDCB6B" fill-rule="nonzero" d="M167.416 232.06c-.462-.375-1.018-.618-1.607-.703-2.035-.266-3.926 1.098-4.317 3.113-.2 1.14.176 2.305 1.004 3.113 2.912.702 3.112-4.118 4.92-5.523z"/>
        <path fill="#FDAD52" fill-rule="nonzero" d="M167.416 232.06c-1.808 1.406-2.008 6.226-4.92 5.523.544.614 1.294 1.007 2.109 1.104 2.035.266 3.926-1.097 4.318-3.113.178-1.358-.4-2.706-1.507-3.514z"/>
        <path fill="#93CD00" fill-rule="nonzero" d="M237.705 350.447v-.201c-.1-.703.201-.803.1-1.406-.1-.602-.401-.602-.502-1.205-.1-.602.2-.803.1-1.406-.1-.602-.401-.602-.502-1.205-.1-.602.2-.803.1-1.405-.1-.603-.402-.603-.502-1.205-.1-.603.2-.703.1-1.406s-.402-.603-.502-1.205c-.1-.603.2-.803.1-1.406-.1-.602-.402-.602-.502-1.205-.1-.602.2-.803.1-1.406-.1-.602-.402-.602-.502-1.204-.1-.603.2-.804.1-1.406-.1-.603-.402-.603-.502-1.205-.1-.603.2-.804.1-1.406-.1-.603-.401-.603-.502-1.205-.1-.603.201-.703.1-1.406-.1-.703-.401-.602-.502-1.205-.1-.602.201-.803.1-1.406-.1-.602-.402-.602-.502-1.204-.1-.603.2-.804.1-1.406-.1-.603-.402-.603-.502-1.205-.1-.603.2-.804.1-1.406-.101-.603-.402-.603-.502-1.205-.1-.602.2-.803.1-1.406-.101-.602-.402-.602-.502-1.205-.1-.602.2-.803.1-1.405-.101-.603-.402-.603-.502-1.205-.1-.603.2-.804.1-1.406-.101-.603-.402-.603-.502-1.205-.1-.602.2-.803.1-1.406-.101-.602-.402-.602-.502-1.205-.1-.602.2-.803.1-1.406-.101-.602-.402-.602-.502-1.205-.1-.602.2-.803.1-1.405-.101-.603-.402-.603-.502-1.205-.1-.603.2-.804.1-1.406-.101-.603-.402-.603-.502-1.205-.1-.603.2-.803.1-1.406-.029-.23-.135-.442-.302-.602l1.406-.402c.12.19.221.392.301.602.1.703-.2.703-.1 1.406.101.703.402.603.603 1.205.2.603-.201.703-.1 1.406.1.703.401.603.602 1.205.201.603-.2.703-.1 1.406.101.703.402.602.603 1.205.2.602-.201.703-.1 1.406.1.702.401.602.602 1.204.201.603-.2.703-.1 1.406.101.703.402.603.603 1.205.2.603-.201.703-.1 1.406.1.703.401.602.602 1.205.201.602-.2.703-.1 1.406s.401.602.602 1.205c.201.602-.2.702-.1 1.405.101.703.402.603.603 1.205.2.603-.201.703-.1 1.406.1.703.401.603.602 1.205.201.603-.2.703-.1 1.406s.401.602.602 1.205c.201.602-.2.703-.1 1.406.101.702.402.602.603 1.205.2.602-.201.702-.1 1.405.1.703.401.603.602 1.205.201.603-.2.703-.1 1.406.101.703.402.603.603 1.205.2.602-.201.703-.1 1.406.1.703.401.602.602 1.205.201.602-.2.703-.1 1.406.101.702.402.602.603 1.204.2.603-.201.703-.1 1.406.1.703.401.603.602 1.205.201.603-.2.703-.1 1.406.101.703.402.603.603 1.205.2.603-.201.703-.1 1.406.1.703.401.602.602 1.205.201.602-.2.703-.1 1.406.1.702.401.602.602 1.204.201.603-.2.804-.1 1.406 0 .1 0 .1.1.201l-1.305.402h-2.108z"/>
        <path fill="#69B400" fill-rule="nonzero" d="M238.87 350.145c0-.1 0-.1-.1-.2-.2-.603.1-.703 0-1.406s-.502-.502-.603-1.205c-.1-.703.101-.703 0-1.406-.1-.703-.501-.502-.602-1.205-.1-.703.1-.703 0-1.406-.1-.702-.502-.502-.602-1.205-.1-.703.1-.703 0-1.405-.1-.703-.502-.502-.603-1.205-.1-.703.1-.703 0-1.406s-.502-.502-.602-1.205c-.1-.703.1-.703 0-1.406s-.502-.502-.603-1.205c-.1-.703.1-.703 0-1.406s-.502-.502-.602-1.204c-.1-.703.1-.703 0-1.406s-.502-.502-.603-1.205c-.1-.703.1-.703 0-1.406s-.502-.502-.602-1.205c-.1-.703.1-.703 0-1.406s-.502-.502-.603-1.205c-.1-.703.1-.703 0-1.405-.1-.703-.502-.503-.602-1.205-.1-.703.1-.703 0-1.406s-.502-.502-.603-1.205c-.1-.703.1-.703 0-1.406s-.502-.502-.602-1.205c-.1-.703.1-.703 0-1.406s-.502-.502-.603-1.205c-.1-.702.1-.702 0-1.405-.1-.703-.502-.502-.602-1.205-.1-.703.1-.703 0-1.406s-.502-.502-.603-1.205c-.1-.703.1-.703 0-1.406s-.502-.502-.602-1.205c-.1-.703.1-.703 0-1.406-.1-.702-.502-.502-.603-1.205-.1-.703.1-.703 0-1.405-.1-.703-.502-.502-.602-1.205-.1-.703.1-.703 0-1.406-.058-.22-.16-.425-.301-.603l1.405-.502c.18.151.288.37.302.603.2.602-.1.703 0 1.406.1.702.502.502.702 1.205.201.703-.1.703 0 1.405.1.703.502.502.703 1.205.201.703-.1.703 0 1.406s.502.502.703 1.205c.201.703-.1.703 0 1.406s.502.502.703 1.205c.2.703-.1.703 0 1.406s.502.502.703 1.204c.2.703-.1.703 0 1.406s.502.502.703 1.205c.2.703-.1.703 0 1.406s.502.502.703 1.205c.2.703-.1.703 0 1.406s.502.502.703 1.205c.2.703-.1.703 0 1.405.1.703.502.503.703 1.205.2.703-.1.703 0 1.406s.502.502.702 1.205c.201.703-.1.703 0 1.406s.502.502.703 1.205c.201.703-.1.703 0 1.406s.502.502.703 1.205c.201.702-.1.702 0 1.405.1.703.502.503.703 1.205.2.703-.1.703 0 1.406s.502.502.703 1.205c.2.703-.1.703 0 1.406s.502.502.703 1.205c.2.703-.1.703 0 1.406.1.702.502.502.703 1.205.2.703-.1.703 0 1.405.1.703.502.502.703 1.205.2.703-.1.703 0 1.406s.502.502.703 1.205c.2.703-.1.703 0 1.406s.502.502.702 1.205c.201.703-.2.803 0 1.406 0 .1 0 .1.1.2l-3.313.502z"/>
        <path fill="#69D000" fill-rule="nonzero" d="M242.023 349.02l-1.295.543c0-.1 0-.1-.1-.2-.221-.603.08-.704-.141-1.407-.22-.703-.522-.482-.733-1.084-.21-.603.08-.703-.14-1.396-.221-.693-.523-.492-.734-1.084-.21-.593.08-.713-.14-1.406-.22-.693-.522-.492-.743-1.084-.221-.593.08-.703-.14-1.406-.221-.703-.513-.482-.734-1.085-.22-.602.08-.703-.14-1.396-.221-.692-.513-.491-.733-1.084-.221-.592.08-.703-.141-1.406-.22-.703-.512-.482-.733-1.084-.22-.603.08-.703-.14-1.396-.221-.693-.513-.492-.734-1.084-.22-.593.08-.713-.14-1.406-.22-.693-.522-.492-.733-1.085-.211-.592.08-.703-.14-1.405-.221-.703-.523-.482-.734-1.085-.21-.602.08-.703-.14-1.396-.221-.692-.523-.492-.743-1.084-.221-.593.08-.703-.141-1.406-.22-.703-.512-.482-.733-1.084-.22-.603.08-.703-.14-1.396-.221-.693-.513-.492-.734-1.084-.22-.593.08-.713-.14-1.406-.22-.693-.512-.492-.733-1.085-.221-.592.08-.703-.14-1.405-.221-.703-.513-.483-.734-1.085-.22-.602.08-.703-.14-1.396-.221-.692-.523-.492-.733-1.084-.211-.593.08-.703-.141-1.406-.22-.703-.522-.482-.733-1.084-.21-.603.08-.703-.14-1.396-.221-.693-.523-.492-.744-1.085-.22-.592.08-.713-.14-1.405-.22-.693-.512-.492-.733-1.085-.221-.592.08-.703-.14-1.406-.221-.703-.513-.482-.734-1.084-.22-.603.08-.703-.14-1.396-.09-.226-.231-.429-.412-.592l1.285-.543c.184.163.329.366.422.593.21.592-.08.703.14 1.406.22.703.512.482.733 1.084.221.603-.08.703.14 1.396.221.693.513.492.734 1.084.22.593-.08.703.14 1.406.22.703.512.482.733 1.085.221.602-.08.702.14 1.395.221.693.523.492.734 1.085.21.592-.08.713.14 1.406.221.692.522.492.733 1.084.211.592-.08.703.141 1.406.22.703.522.482.743 1.084.22.603-.08.703.14 1.396.221.693.513.492.734 1.084.22.593-.08.703.14 1.406.22.703.512.482.733 1.085.221.602-.08.703.14 1.395.221.693.513.493.734 1.085.22.592-.08.713.14 1.406.221.692.513.492.733 1.084.221.593-.08.703.141 1.406.22.703.522.482.733 1.084.21.603-.08.703.14 1.396.221.693.523.492.734 1.085.21.592-.08.703.14 1.405.22.703.522.482.743 1.085.221.602-.08.703.14 1.396.221.692.513.492.734 1.084.22.593-.08.713.14 1.406.221.693.512.492.733 1.084.221.593-.08.703.141 1.406.22.703.512.482.733 1.085.22.602-.08.702.14 1.395.221.693.513.492.734 1.085.22.592-.08.713.14 1.405.22.693.522.483.733 1.085.211.602-.08.703.14 1.406.221.703.523.482.734 1.074.21.593-.07.814.14 1.406 0 .1.11.1.11.2z"/>
        <path fill="#FF0" fill-rule="nonzero" d="M235.596 319.911s-3.765 2.32-4.669 1.918c-.135-.442-.186-.905-.15-1.366 0 0 3.404-1.898 4.207-1.898.368.355.587.836.612 1.346zM237.705 335.284s-1.607 1.205-2.41.804c-.221-.391-.422-.794-.602-1.205.783-.434 1.63-.739 2.51-.904.703.904.502 1.305.502 1.305z"/>
        <path fill="#FF4800" fill-rule="nonzero" d="M228.065 335.686c-.003.484-.105.963-.3 1.406-.503 1.506-2.913 4.016-3.214 4.317-.497-.307-.883-.764-1.105-1.305-1.023-2.09-.283-4.616 1.708-5.824.735-.404 1.574-.58 2.41-.502.256.468.426.978.502 1.506v.402z"/>
        <path fill="#F54800" fill-rule="nonzero" d="M229.27 341.61c-1.004.602-3.213 1.205-4.619-.1.301-.301 2.711-2.812 3.213-4.318.196-.443.298-.921.302-1.406v-.3c-.03-.539-.204-1.059-.503-1.507 1.786.159 3.259 1.466 3.628 3.22.37 1.755-.45 3.545-2.021 4.411z"/>
        <path fill="#F17D37" fill-rule="nonzero" d="M235.396 329.56c1.305 2.712-.703 6.126-3.113 8.536 1.573 1.26 3.748 1.459 5.523.502 2.319-1.295 3.15-4.225 1.854-6.544-.015-.028-.03-.056-.047-.083-.885-1.489-2.486-2.403-4.217-2.41z"/>
        <path fill="#F18837" fill-rule="nonzero" d="M235.396 329.56c-.84.01-1.665.216-2.41.603-2.32 1.295-3.15 4.225-1.855 6.544l.047.084c.286.498.66.94 1.105 1.305 2.41-2.41 4.418-5.824 3.113-8.535z"/>
        <path fill="#5A8C40" fill-rule="nonzero" d="M220.535 331.77s-.603-2.51-2.611-3.213c-.717-.063-1.438.04-2.109.301-1.272.517-2.235 1.591-2.61 2.912-3.415.402-5.122 4.217-1.909 6.226-2.61 3.313 1.005 6.326 2.41 4.619.249.228.453.5.603.803 1.105 1.488 2.313 2.898 3.615 4.217l8.435-7.029-2.712-4.82c.804-.803 1.607-1.907.703-3.414-1.205-2.008-3.815-.602-3.815-.602z"/>
        <path fill="#639E41" fill-rule="nonzero" d="M215.313 333.477c-.018-.441-.085-.88-.2-1.305-.1-.201-1.105-2.009-1.306-1.708-.323.368-.532.822-.603 1.306-3.414.401-5.12 4.217-1.907 6.225-2.21 2.812.1 5.423 1.606 5.121-.1 0-.502-.602-.502-.702 0-.1-.301-.402-.402-.603-.193-.372-.296-.785-.3-1.205.018-.696.265-1.366.702-1.908.904-1.205 2.21-2.209 2.711-3.715.165-.484.233-.996.201-1.506z"/>
        <circle cx="222.944" cy="337.694" r="4.117" fill="#FF4800" fill-rule="nonzero"/>
        <path fill="#F54800" fill-rule="nonzero" d="M219.33 339.702c.68 1.313 2.008 2.163 3.485 2.23 1.476.068 2.876-.658 3.673-1.903.797-1.245.869-2.82.189-4.132-.037-.072-.076-.142-.117-.211-.608-1.084-1.683-1.825-2.912-2.008-.538 2.488-2.265 4.553-4.62 5.522.123.154.224.322.302.502z"/>
        <circle cx="212.903" cy="346.33" r="4.117" fill="#FF4800" fill-rule="nonzero"/>
        <path fill="#F54800" fill-rule="nonzero" d="M214.71 342.614c1.328.646 2.21 1.95 2.314 3.423.105 1.473-.584 2.889-1.807 3.716-1.223.826-2.794.938-4.121.292-.59-.323-1.102-.768-1.506-1.305.249.35.554.655.904.904 1.357-2.09 1.626-4.706.723-7.03 1.099-.55 2.394-.55 3.493 0z"/>
        <path fill="#BC7050" fill-rule="nonzero" d="M235.506 352.395c-.2 0-.301.06-.612.06-2.009-.1-3.615-2.109-4.419-3.916-4.34-9.558-7.51-19.605-9.438-29.923-.402-2.11-.1-5.322 2.008-5.825 3.113-.803 4.217 1.708 5.322 4.118 3.521 7.867 6.441 15.99 8.736 24.3.762 2.501 1.034 5.126.803 7.731-.301 1.406-.894 3.153-2.4 3.455z"/>
        <path fill="#B5694E" fill-rule="nonzero" d="M222.944 312.792c-.599.197-1.099.618-1.395 1.175 8.334 7.43 9.228 20.916 8.123 31.66-.005.262-.06.52-.16.763.3.703.562 1.446.863 2.149.803 1.807 2.41 3.815 4.418 3.916h.603c1.596-.281 2.31-2.008 2.51-3.515.246-2.606-.016-5.236-.774-7.742-2.162-8.194-5.028-16.186-8.565-23.888-1.114-2.801-2.51-5.422-5.623-4.518z"/>
        <path fill="#A05522" fill-rule="nonzero" d="M226.158 329.952c-.037-.008-.069-.03-.09-.06-.025-.043-.025-.097 0-.14 0-.1.25-.211.341-.271.24-.164.496-.305.763-.422.657-.311 1.372-.482 2.099-.502h.663c.14 0 .532 0 .34.2-.257.262-.569.465-.913.593-.352.168-.718.306-1.094.412-.351.081-.707.142-1.065.18-.237.016-.475.016-.713 0-.109.022-.221.025-.331.01zM227.815 335.214c.02-.114.085-.215.18-.281.144-.097.299-.174.462-.231.281-.1.573-.17.864-.251.657-.164 1.33-.252 2.008-.261h.703c.073-.01.147-.01.22 0 .048.012.084.051.09.1 0 .08-.12.14-.18.18l-.291.14c-.342.131-.703.232-1.055.342-.439.145-.889.256-1.345.331-.283.035-.568.055-.854.06h-.411c-.12.01-.24-.008-.352-.05-.022-.02-.036-.049-.04-.079zM230.204 340.897c0-.1.13-.2.221-.25.152-.078.314-.132.482-.161.301-.07.603-.09.904-.13.684-.076 1.374-.076 2.058 0l.693.09c.076.001.151.018.221.05.045.018.076.06.08.11 0 .08-.15.12-.21.15l-.302.09c-.362.09-.733.14-1.095.201-.456.089-.92.132-1.385.13-.281.015-.563.015-.844 0l-.411-.06c-.121-.002-.239-.037-.342-.1-.046-.021-.074-.069-.07-.12zM231.39 345.687c0-.1.16-.18.25-.22.163-.053.332-.08.502-.08h.914c.68.035 1.353.146 2.008.33l.673.191c.074.016.145.043.21.08.043.025.067.072.06.12 0 .08-.16.1-.23.12l-.311.05h-1.115c-.46.01-.92-.017-1.376-.08-.28-.044-.559-.104-.833-.18l-.402-.12c-.117-.025-.227-.076-.321-.15-.015-.017-.026-.038-.03-.06zM224.019 323.416c-.037-.009-.069-.03-.09-.06-.025-.044-.025-.098 0-.141 0-.1.25-.21.341-.271.241-.164.496-.305.763-.422.657-.311 1.372-.482 2.099-.502h.663c.14 0 .532 0 .341.2-.258.263-.57.465-.914.593-.352.169-.718.306-1.094.412-.342.08-.703.13-1.065.18-.236.033-.474.05-.712.05-.112.001-.224-.013-.332-.04zM222.262 317.782c-.036-.015-.067-.039-.09-.07-.02-.044-.02-.096 0-.14.05-.1.26-.191.361-.251.902-.477 1.912-.713 2.932-.683h.663c.13 0 .532 0 .321.23-.294.244-.636.422-1.004.523-.369.137-.748.245-1.135.321-.351.05-.713.07-1.064.09-.24.015-.482.015-.723 0-.088.005-.175-.002-.261-.02z"/>
        <path fill="#F9F9F9" fill-rule="nonzero" d="M210.091 349.744c-.519.403-.686 1.114-.401 1.707 2.209 6.426 14.058 40.065 24.3 42.876 10.242 2.812 36.149-15.865 37.052-26.81-.903-8.234-19.33-27.111-30.977-34.542-7.933-.1-25.957 13.656-29.974 16.769z"/>
        <path fill="#E0E0E0" fill-rule="nonzero" d="M271.042 367.517c-.582 6.979-11.366 17.12-21.74 22.804 4.079-4.037 6.524-9.435 6.87-15.163.392-4.812.14-9.654-.754-14.399-1.129-6.223-3.52-12.149-7.029-17.411-1.074-1.617-2.25-3.123-3.434-4.62-1.172-1.437-2.43-2.801-3.766-4.086-.23-.181-.853-.914-1.536-1.667h.372c11.688 7.43 30.114 26.308 31.017 34.542z"/>
        <path fill="#52B5A2" fill-rule="nonzero" d="M221.137 346.33c-.502.1-3.113-5.221-3.213-5.623-1.707-3.314-9.339-18.275-7.632-21.187.181-.268.376-.526.583-.773 1.263 4.009 2.883 7.897 4.84 11.617 2.811 5.624 6.627 13.155 7.13 14.058.2.301.3.502-.202.904l-1.506 1.004z"/>
        <path fill="#52B5A2" fill-rule="nonzero" d="M221.539 333.075c-1.908-2.61-11.95-12.05-11.247-13.556.1-.317.306-.59.583-.773 0 0 3.012 1.778 8.254 7.1 3.845 4.258 7.465 8.716 10.844 13.354.502.603.402.603 0 .904l-1.606 1.205c-.302.101-6.627-7.933-6.828-8.234z"/>
        <path fill="#499E8E" fill-rule="nonzero" d="M251.18 349.999c-.076-.111-.179-.201-.3-.26-.116-.073-.254-.105-.39-.09-.133.001-.262.043-.37.12-.11.078-.198.18-.26.3-.068.118-.1.254-.09.39.01.133.055.26.13.37.065.108.154.2.26.27.12.064.254.095.39.09.142-.003.28-.045.4-.12.113-.081.205-.187.27-.31.058-.122.089-.255.09-.39-.014-.132-.059-.258-.13-.37zm-.04.72c-.055.104-.134.193-.23.26-.098.065-.213.1-.33.1-.116.007-.23-.02-.33-.08-.106-.052-.196-.131-.26-.23-.067-.097-.102-.212-.1-.33.004-.113.028-.225.07-.33.055-.101.134-.187.23-.25.098-.065.213-.1.33-.1.236-.01.46.103.59.3.065.098.1.213.1.33.007.114-.017.228-.07.33z"/>
        <path fill="#499E8E" fill-rule="nonzero" d="M250.454 350.797L250.361 350.856 250.122 350.482 250.002 350.558 249.951 350.478 250.285 350.266 250.336 350.346 250.216 350.422zM250.841 350.55L250.505 350.258 250.598 350.405 250.734 350.618 250.654 350.669 250.364 350.215 250.498 350.13 250.826 350.409 250.712 349.994 250.845 349.909 251.135 350.364 251.041 350.423 250.905 350.209 250.88 350.17 250.812 350.063 250.922 350.5z"/>
        <path fill="#FB654A" fill-rule="nonzero" d="M251.466 357.63c-.085.054-.164.117-.236.188-.058.05-.1.117-.123.19-.027.076-.034.158-.018.238.021.103.048.205.082.304l.109.288.636 1.737c.011.014.016.032.012.049.03.086.037.178.022.268-.043.084-.11.153-.194.198l-.413.263c-.023.015-.049.025-.076.03-.096.014-.193-.012-.27-.072-.037-.023-.07-.054-.094-.09l-.713-.824c-.053-.053-.093-.117-.119-.187-.002-.004-.003-.008-.002-.012 0-.004.003-.008.007-.01.004-.022-.004-.035.001-.057l.005-.022c.004-.002.006-.006.007-.01s0-.009-.002-.012c.022-.052.076-.086.156-.137l.868-.553-.134-.327-1.415.9c-.24.153-.257.332-.055.561l.987 1.138c.034.05.08.093.133.122.093.076.212.115.332.108.118-.02.23-.066.327-.134l.894-.569c.086-.054.165-.117.237-.188.058-.051.1-.117.123-.19.028-.077.034-.159.017-.238-.02-.103-.047-.205-.08-.304l-.097-.24-.688-1.817c-.031-.081-.036-.17-.012-.254.042-.085.11-.154.193-.198l.333-.213c.031-.021.065-.037.102-.046.035-.004.084-.016.119-.019l-.155-.39-.805.531zM251.917 362.02c.089.14.048.326-.092.414-.14.09-.325.048-.414-.092-.089-.14-.048-.324.091-.414.14-.089.326-.047.415.093zM252.772 361.477c.088.14.047.325-.093.413-.14.09-.325.048-.414-.091-.089-.14-.048-.325.092-.414.14-.09.325-.048.415.092z"/>
        <path fill="#FB654A" fill-rule="nonzero" d="M253.213 357.664l.659 1.741c.032.081.037.171.012.255-.023.084-.08.154-.157.194-.055.043-.125.06-.194.049-.066-.01-.125-.048-.16-.105l-.017-.027c-.009-.013-.009-.013-.004-.035l-.659-1.74-.587.373.051.08.043.067.034.053.025.04.65 1.728c.012.014.016.032.012.05l.025.04c.039.06.1.103.17.118.084.001.166-.025.234-.074l.454-.289.027-.017c.111-.072.18-.194.186-.326l.109.288c.046.099.058.21.033.317-.043.085-.11.154-.193.199l-.507.322c-.03.023-.065.038-.102.046-.036.004-.084.016-.119.02l.155.39 1-.637c.085-.054.164-.117.236-.188.058-.051.1-.118.123-.192.028-.075.034-.157.017-.236-.02-.104-.047-.205-.081-.305l-.954-2.53-.52.33zM245.365 365.573l-.762-2.051-.034-.054-.043-.067c-.026-.046-.06-.088-.098-.125l.573-.365.127.258.098-.288c.015-.048.037-.093.064-.135.023-.038.053-.07.09-.095l.213-.135c.045-.036.102-.053.159-.046.037.006.07.025.092.055l-.106.63-.017-.026c-.029-.057-.082-.097-.145-.108-.062-.012-.127.006-.174.048-.067.045-.117.11-.145.186-.027.079-.025.164.005.242l.632 1.7-.547.35.018.026zM248.05 363.519c-.18.16-.32.26-.4.32-.112.083-.25.123-.39.11-.118-.03-.217-.11-.27-.22-.057-.068-.101-.146-.13-.23-.05-.104-.094-.21-.13-.32l1.12-.71c-.056-.169-.134-.33-.23-.48-.09-.177-.256-.306-.45-.35-.196-.01-.39.046-.55.16-.128.093-.249.197-.36.31-.101.099-.174.223-.21.36-.033.151-.04.307-.02.46.026.205.077.407.15.6.057.16.131.315.22.46.106.177.268.314.46.39.198.05.409.006.57-.12l.78-.5-.16-.24zm-1.54-1.16c-.003-.119.053-.231.15-.3.063-.048.146-.059.22-.03.078.034.141.094.18.17.031.042.055.09.07.14.02.07.05.11.07.17l-.57.36c-.082-.157-.123-.333-.12-.51zM250.07 362.479c-.01-.02-.04-.04-.06-.07-.026-.04-.046-.084-.06-.13l-.57-1.5c-.016-.05-.04-.098-.07-.14-.14-.23-.36-.24-.65-.06l-.88.56.19.31c.064-.089.145-.164.24-.22l.22-.15c.073-.052.16-.08.25-.08.069.005.13.047.16.11.012.011.022.025.03.04.01.01.01.02.01.05l.05.13c-.157.101-.307.211-.45.33-.124.093-.23.208-.31.34-.07.127-.115.266-.13.41-.017.161.011.323.08.47.045.133.106.26.18.38.05.108.152.183.27.2.135-.023.265-.074.38-.15l.31-.2h.01c.12-.072.2-.2.21-.34l.07.16.6-.38c-.032-.018-.059-.042-.08-.07zm-.77.06c-.02.112-.09.208-.19.26-.052.03-.11.047-.17.05-.066-.01-.121-.051-.15-.11-.01-.02-.02-.03-.02-.04-.01-.02-.02-.03-.02-.05l-.11-.3c-.068-.143-.065-.31.01-.45.098-.138.224-.253.37-.34l.25.7c.035.089.045.186.03.28zM244.79 365.319L241.707 367.281 241.976 367.468 244.885 365.615zM244.494 364.53L240.971 366.774 241.24 366.959 244.589 364.827zM244.198 363.741l-3.95 2.515.269.187 3.79-2.413c-.046-.093-.082-.19-.108-.289z"/>
        <path fill="#499E8E" fill-rule="nonzero" d="M233.25 365.309c-.333-.572-.857-1.007-1.48-1.23-.624-.202-1.303-.14-1.88.17-.147.063-.287.14-.42.23l-.25.16-.61.42-1.04.67-.37.21.24.28.28.45.46.66 1.43 2.25.52.88.2.4.36-.26.4-.26.59-.34.84-.57.08-.05c.302-.208.56-.473.76-.78.202-.33.338-.697.4-1.08.11-.774-.072-1.562-.51-2.21zm-.93 3.61c-.158.158-.332.299-.52.42l-.62.4-.62-.96-.68-1.05-.66-1.06-.66-1.03.58-.37c.203-.132.421-.24.65-.32.76-.26 1.6-.12 2.37 1.1.8 1.24.78 2.19.16 2.87zM241.448 356.889c-.18.164-.38.304-.597.416.155 1.48.336 2.944.495 4.401l-3.746-2.349c-.191.14-.392.268-.6.382.121.28.257.551.378.83l.354.734.809 1.74.525 1.149.192.479.138.363c.195-.153.405-.287.627-.399-.596-1.143-1.17-2.28-1.753-3.431l3.616 2.263.267-.17-.088-.64-.189-1.739-.23-1.864 2.398 3.058c.348-.276.72-.519 1.112-.727-1.253-1.495-2.47-2.993-3.708-4.496zM249.273 353.86c-.82.54-.648.956-.58 1.684l-.557-.848c-.303.23-.624.435-.961.612.816 1.075 1.542 2.215 2.17 3.409l1.04-.663c-.397-.536-.768-1.089-1.117-1.637l-.076-.12-.094-.147c-.412-.883.728-1.214.723-1.193l.037-.117c-.229-.305-.425-.634-.585-.98zM248.69 358.809c-.08.052-.168.093-.26.12-.29.07-.38-.21-.52-.43l-.92-1.45c-.279-.578-.934-.87-1.55-.69-.228.069-.445.173-.64.31-.395.34-.71.763-.92 1.24l.36.39.06-.05c.07-.466.4-.85.85-.99.62-.18 1.21.28.64 1-.08.08-.18.19-.3.3-.574.364-.777 1.104-.47 1.71.26.449.8.65 1.29.48.294-.094.547-.284.72-.54.127-.205.2-.439.21-.68 0-.08.82.74 1.54-.53l-.09-.19zm-1.91 1c-.02.01-.03.02-.04.02-.28.18-.57.08-.8-.31-.186-.3-.162-.685.06-.96.12-.19.28-.35.36-.5.41.76.93 1.37.42 1.75zM250.212 353.45l-.59-.866.726-1.1.166.29.194.364.46.722c.216-.116.412-.266.58-.444.055.144.139.276.247.387l-.663.404 1.328 2.085c.096.195.241.361.42.484.274.07.56-.064.679-.32l.16.311-.112.147c-.452.588-1.282 1.023-1.821.352-.07-.086-.135-.177-.192-.273l-1.396-2.192c-.152.116-.298.21-.459.311-.051-.14-.132-.268-.238-.375l.511-.287zM238.73 365.169l-4.01 2.56.04.25 4.18-2.66-.21-.15zm-.51-.36l-3.6 2.29.03.23 3.76-2.4-.19-.12zm-.51-.36l-3.2 2.04.03.21 3.34-2.13-.17-.12zm-.5-.32l-2.8 1.79.04.18 2.91-1.85-.15-.12zm-.48-.33l-2.43 1.55.03.15 2.53-1.61-.13-.09zm-.44-.32l-2.07 1.32.03.13 2.16-1.37-.12-.08zm-.44-.3l-1.72 1.09.02.12 1.8-1.14-.1-.07zm-.43-.29l-1.37.87.01.11 1.45-.93-.09-.05zM233.44 361.899c-.08-.03-.17.01-.2.09-.025.08.013.166.09.2.08.02.163-.017.2-.09.025-.08-.013-.166-.09-.2zm.72-.5c-.086 0-.16.064-.17.15-.005.085.056.159.14.17.085-.004.156-.066.17-.15.001-.083-.058-.155-.14-.17zm1.03 1.35c-1-.62-.95-.37-.34-1.32-.83.64-.6.74-1.37-.09.43 1.06.43.8-.5 1.28 1.13-.14.92-.29 1.06.87.183-.38.197-.819.04-1.21.19.27.53.39 1.11.47z"/>
        <path fill="#000" fill-rule="nonzero" d="M43.867 455.533H270.111V456.533H43.867z"/>
        <path fill="#E28C71" fill-rule="nonzero" d="M98.13 250.134c-.447-.8-1.107-1.46-1.907-1.908-1.004-2.209-3.816-2.892-4.69-5.523-.118-.631-.43-1.21-.893-1.656-.108-.07-.227-.12-.351-.151h-.523c.944 4.117 3.438 10.671 8.365 9.238z"/>
        <path fill="#353334" fill-rule="nonzero" d="M99.607 246.664L87.65 223.827c-.095-.18-.241-.327-.421-.421l-2.787-1.464v.018c-.256-.146-.569-.154-.832-.02l-1.792.938c-.21.11-.369.3-.44.526-.07.227-.049.472.061.683l13.017 24.811c.23.438.77.608 1.21.378l1.48-.775 2.182-1.015c.148-.069.262-.196.315-.351.052-.155.039-.326-.037-.47z"/>
        <path fill="#FFF" fill-rule="nonzero" d="M97.329 246.806c-.543.122-1.103-.112-1.397-.585l-11.24-21.481c-.123-.235-.147-.51-.068-.763.08-.253.256-.464.49-.587l.21-.11 2.66 1.184 11.293 21.568-1.948.774z"/>
        <rect width="4.692" height="1" x="83.721" y="229.975" fill="#FFF" fill-rule="nonzero" rx=".238" transform="rotate(62.379 86.067 230.213)"/>
    </g>
</svg>
