<svg xmlns="http://www.w3.org/2000/svg" width="32" height="31" viewBox="0 0 32 31">
    <g fill="none">
        <path fill="#FFB100" d="M3.751 9.509H28.236V30H3.751z"/>
        <path fill="#FFF" d="M7.109 15.89H24.875999999999998V23.16H7.109z"/>
        <path fill="#00B67A" d="M30.97 10.43l-.48-1.31-.1-.34-.41-1.37-1.75-5.85c-.183-.505-.663-.841-1.2-.84H4.96c-.535.004-1.013.338-1.2.84l-1.73 5.8-.42 1.42-.11.36-.49 1.35-.01.03c.006.075.023.15.05.22.014.089.037.176.07.26.372 1.33 1.446 2.345 2.794 2.642 1.348.298 2.75-.172 3.646-1.222.591-.675.915-1.543.91-2.44 0 .632.158 1.254.46 1.81.664 1.2 1.929 1.943 3.3 1.94 1.16.003 2.256-.537 2.96-1.46.516-.651.795-1.459.79-2.29-.001.835.28 1.646.8 2.3.98 1.27 2.661 1.774 4.179 1.253 1.517-.52 2.535-1.949 2.531-3.553-.002.892.318 1.754.9 2.43h.01c.704.84 1.744 1.323 2.84 1.32 1.575-.003 2.982-.983 3.53-2.46.123-.233.2-.488.23-.75l-.03-.09z"/>
        <path fill="#333" d="M27.24 14.03c-1.164.002-2.27-.503-3.032-1.383-.017-.012-.032-.026-.046-.042-.28-.325-.506-.693-.669-1.09-.056.136-.119.27-.19.399-.711 1.304-2.078 2.115-3.563 2.116-1.252.005-2.434-.574-3.197-1.566-.23-.291-.42-.613-.56-.957-.14.341-.329.66-.558.95-.759.996-1.942 1.579-3.195 1.573-1.48.003-2.845-.8-3.563-2.096-.073-.136-.14-.277-.198-.42-.165.403-.396.776-.683 1.104-.97 1.132-2.484 1.639-3.94 1.317-1.455-.322-2.615-1.42-3.015-2.856-.033-.085-.057-.173-.074-.263-.028-.084-.046-.17-.054-.258-.006-.045-.002-.091.013-.134l.607-1.732 2.15-7.218C3.699.846 4.293.426 4.96.42h22.07c.663-.002 1.256.413 1.48 1.036l2.267 7.58.475 1.29.003.01.03.091c.013.041.018.084.013.127-.033.3-.122.59-.262.856-.6 1.576-2.11 2.618-3.796 2.62zm-2.658-1.856c.017.012.033.026.047.043.648.77 1.604 1.216 2.611 1.214 1.449-.005 2.743-.908 3.249-2.265.102-.193.171-.4.205-.616l-.592-1.685-2.16-7.219c-.143-.378-.507-.628-.912-.626H4.96c-.41.004-.776.26-.918.645L1.787 9.228l-.48 1.324c.004.025.01.049.02.072.01.026.018.054.02.083.01.057.026.114.047.168.328 1.236 1.314 2.188 2.561 2.471 1.247.284 2.548-.148 3.378-1.121.542-.621.84-1.419.837-2.244 0-.165.134-.3.3-.3.166 0 .3.135.3.3-.004.918.36 1.8 1.01 2.448.65.648 1.532 1.009 2.45 1.002 1.068.005 2.076-.491 2.722-1.341.475-.6.732-1.343.728-2.109 0-.165.134-.3.3-.3.166 0 .3.135.3.3-.003.768.257 1.514.735 2.114.65.846 1.658 1.34 2.725 1.337.916.003 1.795-.36 2.443-1.007.648-.648 1.01-1.527 1.007-2.443 0-.166.134-.3.3-.3.166 0 .3.134.3.3 0 .8.28 1.577.793 2.193z"/>
        <path fill="#DD9D57" d="M2.802 28.322H29.198V30H2.802z"/>
        <path fill="#333" d="M28.07 28.622H3.917c-.166 0-.3-.134-.3-.3 0-.166.134-.3.3-.3h24.151c.166 0 .3.134.3.3 0 .166-.134.3-.3.3z"/>
        <path fill="#007575" d="M15.388 19.511L16.581 19.511 16.725 20.008 15.246 19.971z"/>
        <path fill="#E28C71" d="M16.209 19.575c-.055-.144-.076-.298-.064-.452h-.374c.003.134-.015.267-.054.394-.107.329-.337.347-.337.347l.588 1.221.633-1.233c-.176-.002-.332-.112-.392-.277z"/>
        <path fill="#B56F5D" d="M16.209 19.575c-.054-.144-.076-.298-.064-.452h-.374c.003.134-.015.267-.054.394.146.096.328.117.492.058z"/>
        <path fill="#00B67A" d="M17.09 23.16h-2.43c0-.32-.01-.66-.02-.98v-.1c-.02-1.08-.05-2.01-.05-2.01l.47-.24c.01-.01 0-.01 0-.01l.11-.05.12.07.11.07.11.06.03.01.18.05.25.43c.007.017.023.027.04.027s.033-.01.04-.026l.2-.43.16-.03.11-.02.02-.01.15-.1.16-.1.04.04.08.06c.057.032.091.094.09.16 0 .21 0 .71.01 1.31 0 .25 0 .52.01.79v.11c0 .31.01.62.01.92z"/>
        <path fill="#009A71" d="M16.246 20.028l.245.473s.535-.514.404-.712c-.079-.119-.187-.214-.314-.278 0 0 .103.184-.335.517zM15.723 20.034l-.245.473s-.535-.52-.404-.718c.079-.119.187-.215.314-.278 0 0-.103.19.335.523z"/>
        <path fill="#EB996E" d="M16.628 18.521s.135.106.201-.12c.096-.162.116-.284-.042-.284l-.159.404zM15.38 18.521s-.149.106-.215-.12c-.095-.162-.116-.284.042-.284l.173.404z"/>
        <path fill="#754C24" d="M15.362 18.493L15.133 17.939 15.144 17.642 15.622 17.36 16.002 17.36 16.481 17.36 16.869 17.728 16.87 17.963 16.64 18.493z"/>
        <path fill="#EB996E" d="M15.999 19.415h.017c.504-.016.664-.886.664-.886v-.713c-.175-.182-.427-.271-.678-.24-.251-.031-.502.058-.678.24v.709s.163.885.675.89z"/>
        <path fill="#FFF" d="M16.312 18.796s.038.397-.305.397c-.337 0-.315-.397-.315-.397h.62z"/>
        <circle cx="15.695" cy="18.253" r="1" fill="#253239"/>
        <circle cx="16.311" cy="18.253" r="1" fill="#253239"/>
        <path fill="#754C24" d="M15.303 17.839s-.05.049.021.14c.07.062.173-.013.148-.06.036.04.094.054.144.033.046-.016.072-.064.06-.111.006.025.023.045.046.057.023.012.05.014.074.006.051-.018.08-.072.07-.124.006.062.06.108.123.104.028.003.057-.005.079-.023s.035-.045.037-.073c-.002.059.038.11.096.122.052.014.106-.012.127-.061-.006.042.016.083.054.101.107.039.136-.02.136-.02s-.01.063.072.091c.039.015.082-.004.098-.042v-.222l-.522-.325h-.356l-.486.271-.02.136zM15.292 17.993l-.085.124s-.08 0-.039-.079c0 0-.07-.018-.035-.099s.094-.061.094-.061l.065.115zM16.779 18.031l.024.086c.018.003.037-.005.046-.02.007-.016.005-.033-.006-.046.022-.003.041-.018.051-.038.007-.027-.003-.056-.024-.074-.053-.032-.091.092-.091.092z"/>
        <path fill="#009A71" d="M15.544 16.578c-.087.03-.17.068-.25.115-.055.046-.097.106-.12.174l-.064.28c-.006.027-.009.056-.007.084.002.098.056.189.142.236.087.048.192.046.276-.005l.041-.026c-.093-.278-.1-.577-.018-.858z"/>
        <path fill="#00B66D" d="M16.117 17.266l.31.195c.084.051.189.053.275.006.086-.048.14-.138.143-.236.001-.028-.001-.057-.007-.084l-.065-.283c-.015-.069-.055-.13-.112-.171-.028-.02-.056-.038-.085-.054-.144-.068-.298-.113-.455-.135-.097-.016-.197-.016-.294 0-.096.017-.191.042-.284.074-.08.281-.074.58.02.857l.269-.169c.087-.055.198-.055.285 0z"/>
        <path fill="#4D4D4D" d="M15.335 17.19s-.317.053-.388.274c-.07.221.186.476.186.476.173-.109.366-.182.567-.216-.11-.17-.18-.363-.207-.564-.098.015-.158.03-.158.03z"/>
        <path fill="#333" d="M16.826 17.242c-.255-.078-.52-.122-.786-.13-.183.001-.366.017-.546.047.026.2.096.394.206.564.405-.071.822.01 1.17.23l.016.01s.023 0 .148-.27c.038-.087.036-.185-.003-.271-.04-.086-.114-.152-.205-.18z"/>
        <path fill="#EB996E" d="M18.09 22.79l.05.37h-.78l-.08-.28v-.01l-.14-.44-.07-1.09-.1-1.47c.05.04.1.07.14.1.034.018.065.042.09.07.04.03.08.07.12.1.033.031.063.065.09.1.185.258.305.557.35.87l.3 1.52.03.16z"/>
        <path fill="#E28C71" d="M18.09 22.79c-.25.09-.36.22-.39.37h-.34l-.08-.28v-.01l-.14-.44-.07-1.09-.1-1.47c.05.04.1.07.14.1.034.018.065.042.09.07.04.03.08.07.12.1.033.031.063.065.09.1.185.258.305.557.35.87l.3 1.52.03.16z"/>
        <path fill="#EB996E" d="M11.527 20.436l-.133-.133c-.063-.063-.149-.098-.238-.098h-.658c-.018 0-.034.01-.042.026s-.006.035.005.05c.052.066.125.113.208.13l.557.114.103.107.198-.196zM14.646 22.287c.009.38.428-2.498.428-2.498-.151.029-.297.08-.433.154-.228.184-.43.396-.604.633l-.866 1.174c-.013.019-.035.03-.058.032-.023.002-.045-.006-.062-.022l-1.524-1.323-.197.196s1.527 1.738 1.918 2.093c.03.033.081.036.116.007l1.128-1.221c.12.24.173.507.154.774z"/>
        <path fill="#E28C71" d="M14.641 19.943c-.228.184-.43.396-.604.633l-.094.128c.144.601-.073 1.232-.556 1.617-.255.197-.9-.794-1.656-1.236.508.597 1.383 1.52 1.516 1.64.03.034.082.037.116.008l1.129-1.221c.12.24.173.507.154.775.009.381.428-2.498.428-2.498-.151.029-.297.08-.433.154z"/>
        <path fill="#00B67A" d="M14.047 20.558l-.584.795c.16.243.355.46.58.643l.448-.485c.12.24.174.508.155.776.008.38.428-2.498.428-2.498-.14.03-.276.077-.404.14-.241.174-.451.387-.623.63z"/>
        <path fill="#E28C71" d="M10.47 20.292c.05.06.121.102.199.118l.557.114.23.251-.096-.156c-.212-.318-.247-.157-.89-.327z"/>
        <path fill="#00B67A" d="M17.759 21.11c-.045-.313-.165-.61-.349-.868-.123-.15-.27-.277-.437-.376l.105 2.37.2.64c.27-.05.534-.13.786-.242l-.305-1.524z"/>
        <path fill="#00937E" d="M16.357 21.511h-.08c-.02 0-.037.017-.037.037v.556c0 .014.007.026.019.033l.256.145c.011.006.025.006.036 0l.14-.08c-.209-.17-.33-.422-.334-.69z"/>
        <path fill="#009A71" d="M16.788 21.511h-.43c.002.269.124.522.332.692l.117-.066c.011-.007.019-.02.019-.033v-.556c0-.02-.017-.037-.038-.037z"/>
    </g>
</svg>
