<svg xmlns="http://www.w3.org/2000/svg" width="32" height="32" viewBox="0 0 32 32">
    <g fill="none" fill-rule="nonzero">
        <path fill="#BAFFD3" d="M2.05 13.322a9.081 9.081 0 1 0 9.082-9.08 9.09 9.09 0 0 0-9.081 9.08z"/>
        <path fill="#4F945E" d="M24.966 8.871a.718.718 0 0 1 .72 1.08 3.581 3.581 0 0 0-.568 2.686 9.846 9.846 0 0 1 3.18 4.971c.28-.095.581-.112.87-.048.766.18 1.303.868 1.293 1.655v1.94a1.671 1.671 0 0 1-1.267 1.644c-.289.065-.59.05-.87-.045a9.842 9.842 0 0 1-3.138 4.946 3.2 3.2 0 0 0-1.1 2.446v.886c0 .357-.289.647-.646.647h-3.924a.646.646 0 0 1-.646-.647v-.995h-3.113v.995c0 .357-.29.647-.646.647h-3.924a.646.646 0 0 1-.647-.647v-1.157a3.142 3.142 0 0 0-1.073-2.337 9.82 9.82 0 0 1-3.274-6.875.23.23 0 0 1 .016-.097 8.727 8.727 0 0 0 13.155-10.192h.036a9.8 9.8 0 0 1 2.104.353c.588-.773 1.636-1.62 3.462-1.856zm-.601 6.924a.97.97 0 1 0 0 1.94.97.97 0 0 0 0-1.94z"/>
        <path fill="#4F945E" d="M12.546 16.658v-.053l-2.29-2.54c.677 0 1.207-.133 1.588-.4.381-.266.6-.662.655-1.19h.706l.214-.7h-.934a1.766 1.766 0 0 0-.376-.88h1.096l.214-.701H9.122l-.219.701h1.306c.762.024 1.217.317 1.366.88H9.108l-.214.7h2.69a1.038 1.038 0 0 1-.46.647c-.242.158-.556.239-.943.242H9.024l.005.555 2.462 2.74h1.055zM12.027 4.64a4.703 4.703 0 1 1 6.678 4.331 8.76 8.76 0 0 0-6.678-4.33z"/>
    </g>
</svg>
