<svg id="Secure_Payment" data-name="Secure Payment" xmlns="http://www.w3.org/2000/svg" width="40" height="40" viewBox="0 0 40 40">
  <rect id="Rectangle_4" data-name="Rectangle 4" width="40" height="40" fill="#fff"/>
  <path id="_-e-Forma_1" data-name="-e-Forma 1" d="M1833.564,843.8a53.871,53.871,0,0,0-12.584,9.772l-4.7-3.323a15.943,15.943,0,0,0-2.636,2.051l8.554,7.854a.331.331,0,0,0,.246.092.344.344,0,0,0,.067-.005.332.332,0,0,0,.246-.191c1.38-3.179,5.928-9.843,11.738-14.672a.286.286,0,0,0,.082-.348,8.587,8.587,0,0,0-1.015-1.231Zm5.774-8.253c-10.313,8.378-15.7-2.932-15.328-3.179a.649.649,0,0,0-.595-.367h-.01a.671.671,0,0,0-.6.359c.251-.5-6.866,12.893-15.092,1.856-.215-.287-.713.4-.713.718v22.394c0,8.143,15.492,14.364,16.148,14.626a.756.756,0,0,0,.523,0c.661-.262,16.148-6.482,16.148-14.626v-22.4C1839.82,834.613,1839.615,835.323,1839.338,835.547Z" transform="translate(-1803 -832.001)" fill="#00b67a" fill-rule="evenodd"/>
  <path id="_-e-Forma_1_copy" data-name="-e-Forma 1 copy" d="M1839.287,846.855c-8.7,6.745-13.251-2.359-12.933-2.559a.555.555,0,0,0-.5-.3h-.01a.565.565,0,0,0-.5.288c.205-.4-5.795,10.382-12.738,1.495-.18-.231-.6.32-.6.576v18.027c0,6.556,13.072,11.564,13.625,11.774a.6.6,0,0,0,.221.038.614.614,0,0,0,.22-.038c.559-.21,13.625-5.219,13.625-11.774V846.359C1839.692,846.1,1839.517,846.675,1839.287,846.855Z" transform="translate(-1805.692 -839.129)" fill="none" stroke="#3a3a3a" stroke-width="1" fill-rule="evenodd"/>
</svg>
